<svg xmlns="http://www.w3.org/2000/svg" viewBox="0 0 400 140"><style>text{font-family:Consolas,monospace}.frame{fill:none;stroke:#164552}.wire{fill:none;stroke:#21667a;stroke-width:1}.dash{fill:none;stroke:#2b7f96;stroke-width:1;stroke-dasharray:4 5}.node{fill:#07141a;stroke:#39d8ff}.label{fill:#7aa8ba;font-size:7px;text-anchor:middle}.tiny{fill:#4f8295;font-size:6px}.title{fill:#65e5ff;font-size:8px}.ico{fill:none;stroke:#65e5ff;stroke-width:1.5;stroke-linecap:round;stroke-linejoin:round}.pulse{animation:p 2.8s ease-in-out infinite;transform-box:fill-box;transform-origin:center}.flow{animation:d 2s linear infinite}.spin{animation:r 10s linear infinite;transform-box:fill-box;transform-origin:center}@keyframes p{50%{filter:drop-shadow(0 0 5px #39d8ff);opacity:1;transform:scale(1.08)}}@keyframes d{to{stroke-dashoffset:-18}}@keyframes r{to{transform:rotate(360deg)}}</style><rect class="frame" x="1" y="1" width="398" height="138"/><text class="title" x="14" y="16">DELIVERY PIPELINE / HEALTHY</text><path class="dash flow" d="M35 76H365"/><g class="pulse"><rect class="node" x="25" y="45" width="52" height="62" rx="5"/><g class="ico " transform="translate(39.5 48) scale(0.72)"><path d="M12 9 5 16l7 7M20 9l7 7-7 7M18 6l-4 20"/></g><text class="label" x="51.0" y="102">CODE</text></g><g class="pulse"><rect class="node" x="97" y="45" width="52" height="62" rx="5"/><g class="ico " transform="translate(111.5 48) scale(0.72)"><circle cx="16" cy="16" r="6"/><path d="M16 3v5M16 24v5M3 16h5M24 16h5M7 7l4 4M21 21l4 4M25 7l-4 4M11 21l-4 4"/></g><text class="label" x="123.0" y="102">BUILD</text></g><g class="pulse"><rect class="node" x="169" y="45" width="52" height="62" rx="5"/><g class="ico " transform="translate(183.5 48) scale(0.72)"><path d="m16 4 11 6-11 6L5 10l11-6Z"/><path d="m5 10 11 6 11-6M5 16l11 6 11-6M5 22l11 6 11-6"/></g><text class="label" x="195.0" y="102">ACR</text></g><g class="pulse"><rect class="node" x="241" y="45" width="52" height="62" rx="5"/><g class="ico " transform="translate(255.5 48) scale(0.72)"><polygon points="16,3 26,9 26,21 16,29 6,21 6,9"/><circle cx="16" cy="16" r="6"/><path d="M16 7v4M16 21v4M7 16h4M21 16h4M10 10l3 3M19 19l3 3M22 10l-3 3M13 19l-3 3"/></g><text class="label" x="267.0" y="102">AKS</text></g><g class="pulse"><rect class="node" x="313" y="45" width="52" height="62" rx="5"/><g class="ico " transform="translate(327.5 48) scale(0.72)"><rect x="5" y="6" width="22" height="17" rx="2"/><path d="M12 28h8M16 23v5M11 15l3 3 7-7"/></g><text class="label" x="339.0" y="102">LIVE</text></g></svg>